<?xml version="1.0" encoding="UTF-8" standalone="no"?>
<!-- Created with Inkscape (http://www.inkscape.org/) -->

<svg
   width="8.5mm"
   height="8.5mm"
   viewBox="0 0 8.5 8.5"
   version="1.1"
   id="svg1"
   inkscape:version="1.4.2 (ebf0e94, 2025-05-08)"
   sodipodi:docname="favicon.svg"
   inkscape:export-filename="favicon.png"
   inkscape:export-xdpi="96"
   inkscape:export-ydpi="96"
   xmlns:inkscape="http://www.inkscape.org/namespaces/inkscape"
   xmlns:sodipodi="http://sodipodi.sourceforge.net/DTD/sodipodi-0.dtd"
   xmlns="http://www.w3.org/2000/svg"
   xmlns:svg="http://www.w3.org/2000/svg"
   xmlns:rdf="http://www.w3.org/1999/02/22-rdf-syntax-ns#"
   xmlns:cc="http://creativecommons.org/ns#"
   xmlns:dc="http://purl.org/dc/elements/1.1/">
  <defs
     id="defs1" />
  <sodipodi:namedview
     id="base"
     pagecolor="#ffffff"
     bordercolor="#000000"
     borderopacity="0.3"
     inkscape:pageopacity="0.0"
     inkscape:pageshadow="2"
     inkscape:zoom="15.839192"
     inkscape:cx="16.825353"
     inkscape:cy="34.124215"
     inkscape:document-units="mm"
     inkscape:showpageshadow="2"
     inkscape:pagecheckerboard="0"
     inkscape:deskcolor="#d1d1d1"
     showguides="false"
     inkscape:window-width="3840"
     inkscape:window-height="2054"
     inkscape:window-x="-11"
     inkscape:window-y="-11"
     inkscape:window-maximized="1"
     inkscape:current-layer="svg1" />
  <metadata
     id="metadata1">
    <rdf:RDF>
      <cc:Work
         rdf:about="">
        <dc:format>image/svg+xml</dc:format>
        <dc:type
           rdf:resource="http://purl.org/dc/dcmitype/StillImage" />
      </cc:Work>
    </rdf:RDF>
  </metadata>
  <g
     id="g85"
     transform="matrix(0.05294196,0,0,0.05294196,-11.5635,-15.017818)">
    <path
       d="m 249.15,432.2 c -3.45,-1.7 -4.95,-7.2 -2.8,-10.1 1.4,-1.9 24.95,-24.45 27.35,-26.2 5.4,-3.9 12.8,0.75 11.35,7.1 -0.3,1.45 -3,4.35 -14,15.25 -7.5,7.45 -14.1,13.75 -14.7,14.1 -1.55,0.85 -5.3,0.75 -7.2,-0.15 z"
       id="path8-4"
       style="fill:#3b7bbc" />
    <path
       d="m 343,429.75 c -1.1,-0.45 -8.45,-7.55 -19.75,-18.95 l -18,-18.2 -4.5,-0.25 C 295.1,392 291,390.65 286.2,387.4 c -6,-4 -9.7,-8.95 -11.8,-15.65 -3.25,-10.45 0.95,-22.9 9.8,-29 l 2.85,-1.95 -17.7,-17.75 c -9.75,-9.8 -18,-18.3 -18.3,-18.9 -2.2,-4.35 1.85,-9.15 7.8,-9.15 l 2.4,-0.05 20.7,20.9 c 27.1,27.35 32.6,33.05 36.9,38.15 1.95,2.35 4.6,4.9 5.9,5.7 2.95,1.9 3.75,3.45 3.75,7.45 0,5.95 -2.1,10.65 -7.05,15.9 l -3,3.2 16.45,16.25 c 9.05,8.95 16.85,17 17.35,17.95 1.45,2.9 0.35,6.95 -2.4,8.75 -1.75,1.15 -4.85,1.4 -6.85,0.55 z M 306.8,376.1 c 2.35,-1.2 5,-4.05 6,-6.4 1.05,-2.5 0.9,-8 -0.3,-10.45 -4.7,-9.7 -17.7,-10.45 -22.7,-1.25 -3.65,6.7 -1.1,14.8 5.85,18.25 2.2,1.05 3.1,1.25 5.85,1.1 2,-0.15 4.05,-0.6 5.3,-1.25 z"
       id="path9-5"
       style="fill:#3b7bbc" />
    <path
       d="m 232.05,414.1 c -2.55,-1.25 -3.7,-3.15 -3.95,-6.35 l -0.25,-2.8 14.4,-14.25 c 8.1,-8 14.9,-14.35 15.6,-14.5 2,-0.5 5.45,0.1 7.05,1.25 1.95,1.35 3.3,4.7 2.85,7 -0.3,1.5 -2.6,4 -14.15,15.4 -7.65,7.5 -14.55,14 -15.45,14.4 -2.05,1 -4,0.95 -6.1,-0.15 z"
       id="path11-1"
       style="fill:#3b7bbc" />
    <path
       d="m 337.25,354.45 c -3.75,-2.2 -5.35,-5.75 -3.95,-8.75 1.2,-2.45 21.4,-22.1 24,-23.25 1.95,-0.9 2.25,-0.9 4.25,-0.2 2.75,1 4.3,2.45 4.95,4.65 0.95,3.55 0.55,4.15 -11.5,16.3 l -11.35,11.45 -2.7,0.2 c -1.5,0.1 -3.15,-0.1 -3.7,-0.4 z"
       id="path17-7"
       style="fill:#3b7bbc" />
    <path
       d="M 346.9,402.1 334,389.25 v -2.2 c 0,-2.8 1.65,-5.05 4.75,-6.55 4.25,-2.05 4.5,-1.9 17.65,11.15 6.45,6.4 12,12.2 12.4,12.95 2.4,4.6 -1.35,10.4 -6.75,10.4 h -2.25 z"
       id="path26-1"
       style="fill:#85c456" />
    <path
       d="m 260.5,347.55 c -0.95,-0.55 -7.2,-6.45 -13.85,-13.15 -10.15,-10.2 -12.1,-12.45 -12.4,-14 -0.95,-5.15 5.9,-10.3 10.2,-7.6 0.8,0.55 6.85,6.25 13.45,12.75 13.65,13.45 14.1,14.05 12.15,18.05 -2,4.2 -6.1,5.85 -9.55,3.95 z"
       id="path27-6"
       style="fill:#85c456" />
    <path
       d="m 318.15,337.1 c -2.2,-2 -3,-4.35 -2.4,-7 0.45,-2.15 22.3,-23.7 24.85,-24.55 5.2,-1.7 10.05,3.25 8.65,8.8 -0.35,1.55 -21.05,22.75 -23.35,23.95 -0.75,0.4 -2.35,0.7 -3.55,0.7 -1.85,0 -2.5,-0.3 -4.2,-1.9 z"
       id="path28"
       style="fill:#85c456" />
  </g>
</svg>
