<?xml version="1.0" encoding="UTF-8" standalone="no"?>
<!-- Created with Inkscape (http://www.inkscape.org/) -->

<svg
   width="66mm"
   height="40mm"
   viewBox="0 0 66 40"
   version="1.1"
   id="svg1"
   inkscape:version="1.4.2 (ebf0e94, 2025-05-08)"
   sodipodi:docname="logo(icon).svg"
   inkscape:export-filename="..\png\logo(icon).png"
   inkscape:export-xdpi="96"
   inkscape:export-ydpi="96"
   xmlns:inkscape="http://www.inkscape.org/namespaces/inkscape"
   xmlns:sodipodi="http://sodipodi.sourceforge.net/DTD/sodipodi-0.dtd"
   xmlns="http://www.w3.org/2000/svg"
   xmlns:svg="http://www.w3.org/2000/svg">
  <sodipodi:namedview
     id="namedview1"
     pagecolor="#ffffff"
     bordercolor="#000000"
     borderopacity="0.25"
     inkscape:showpageshadow="2"
     inkscape:pageopacity="0.0"
     inkscape:pagecheckerboard="0"
     inkscape:deskcolor="#d1d1d1"
     inkscape:document-units="mm"
     inkscape:zoom="2.8284271"
     inkscape:cx="131.69864"
     inkscape:cy="44.547727"
     inkscape:window-width="1916"
     inkscape:window-height="2041"
     inkscape:window-x="1911"
     inkscape:window-y="0"
     inkscape:window-maximized="0"
     inkscape:current-layer="layer1" />
  <defs
     id="defs1" />
  <g
     inkscape:label="Layer 1"
     inkscape:groupmode="layer"
     id="layer1">
    <g
       id="g3"
       transform="matrix(1.5958559,0,0,1.5958559,-8.1996264,-11.917118)">
      <g
         id="g1">
        <path
           d="m 29.977493,23.37066 c -0.256393,-0.03398 -0.293462,-0.08649 -0.293462,-0.417026 0,-0.345977 0.01236,-0.355244 0.438649,-0.345977 0.324353,0.0062 0.330531,0.0062 0.420115,-0.08032 0.09576,-0.09267 0.237859,-0.376867 0.271838,-0.543677 0.01853,-0.09576 0.01853,-0.09576 -0.105028,-0.09576 -0.09885,0 -0.145187,-0.02162 -0.225503,-0.09885 -0.13283,-0.132831 -0.20079,-0.293463 -0.426293,-1.013218 -0.105028,-0.330531 -0.26875,-0.846408 -0.364511,-1.142959 -0.185345,-0.577658 -0.259483,-0.880388 -0.23477,-0.945258 0.04016,-0.108118 0.176077,-0.148276 0.488074,-0.148276 0.172989,0.0031 0.339799,0.01853 0.376868,0.03707 0.07105,0.04016 0.120474,0.169899 0.225503,0.593103 0.105028,0.417026 0.531321,1.896694 0.556034,1.924496 0.01236,0.01236 0.04325,-0.03398 0.07105,-0.108118 0.06178,-0.160632 0.302729,-1.044108 0.484985,-1.785487 0.07414,-0.296552 0.154454,-0.562212 0.176077,-0.590014 0.0556,-0.06487 0.633262,-0.111207 0.766092,-0.05869 0.176077,0.06796 0.179166,0.129742 0.01853,0.679598 -0.06796,0.228591 -0.219324,0.750646 -0.339798,1.158404 -0.311997,1.065732 -0.623994,1.998634 -0.769181,2.301364 -0.135919,0.284195 -0.311997,0.491163 -0.497341,0.586924 -0.219325,0.111207 -0.614727,0.145187 -1.037931,0.09267 z"
           id="path10-5"
           style="fill:#3b7bbc;stroke-width:0.0617816" />
        <path
           d="m 17.88684,21.980575 c -0.358333,-0.07723 -0.725934,-0.330532 -0.874209,-0.608549 -0.172989,-0.321264 -0.225503,-0.56839 -0.225503,-1.10589 0,-0.707399 0.111207,-1.062643 0.432471,-1.390085 0.330531,-0.333621 0.898922,-0.478808 1.535272,-0.386135 0.324353,0.04634 0.528232,0.139008 0.73829,0.33362 0.29964,0.278017 0.417025,0.574569 0.447916,1.149137 0.02162,0.379957 -0.01544,0.577658 -0.120474,0.614727 -0.03707,0.01236 -0.528232,0.01853 -1.090445,0.0093 -0.722844,-0.0062 -1.031752,0 -1.047197,0.02162 -0.03398,0.0556 0.07105,0.361422 0.157543,0.466451 0.123563,0.145186 0.244037,0.191523 0.537499,0.206968 0.194612,0.01236 0.383046,-0.0062 0.735201,-0.06487 0.614727,-0.105028 0.599281,-0.111206 0.586925,0.284196 -0.0093,0.345976 -0.0031,0.336709 -0.383046,0.426292 -0.250215,0.0556 -1.223275,0.08649 -1.430243,0.04325 z m 0.654885,-2.038792 h 0.556034 l -0.01853,-0.188434 c -0.03398,-0.379957 -0.262571,-0.562212 -0.701221,-0.562212 -0.172988,0 -0.262571,0.01544 -0.355244,0.06178 -0.219324,0.114296 -0.296551,0.231681 -0.336709,0.509698 -0.03089,0.197701 -0.0093,0.222414 0.160632,0.197701 0.07723,-0.0093 0.389224,-0.01853 0.695043,-0.01853 z"
           id="path12-7"
           style="fill:#3b7bbc;stroke-width:0.0617816" />
        <path
           d="m 24.729149,21.96204 c -0.293463,-0.06487 -0.534411,-0.194612 -0.707399,-0.379957 -0.271839,-0.290373 -0.373779,-0.651795 -0.373779,-1.346838 0,-0.336709 0.01545,-0.522054 0.05252,-0.676508 0.145186,-0.574569 0.512787,-0.929813 1.087355,-1.053376 0.40158,-0.0834 0.917457,-0.03707 1.238721,0.111207 0.197701,0.09267 0.475718,0.370689 0.577657,0.583836 0.157543,0.321264 0.219325,0.821695 0.142098,1.170761 -0.05869,0.271839 -0.0062,0.262571 -1.170761,0.244037 -0.565301,-0.0093 -1.028663,-0.0062 -1.03793,0.0093 -0.0093,0.01544 0.0093,0.111207 0.03707,0.213146 0.126652,0.451006 0.512787,0.552946 1.482758,0.386135 0.43556,-0.07723 0.457183,-0.07723 0.512787,-0.02471 0.05251,0.04942 0.05869,0.08958 0.04943,0.324353 -0.0031,0.148276 -0.02471,0.284195 -0.04016,0.30273 -0.142098,0.139008 -1.417887,0.23477 -1.850358,0.135919 z m 1.186206,-2.119108 c 0,-0.142097 -0.05869,-0.33362 -0.13283,-0.438649 -0.132831,-0.185345 -0.494253,-0.271839 -0.781537,-0.188434 -0.281106,0.08032 -0.392313,0.231681 -0.460273,0.611638 l -0.02162,0.114296 h 0.698132 0.698132 z"
           id="path13-1"
           style="fill:#3b7bbc;stroke-width:0.0617816" />
        <path
           d="m 21.343519,21.958951 c -0.225503,-0.03089 -0.293463,-0.123563 -0.444828,-0.605459 -0.308907,-0.97306 -0.759913,-2.597915 -0.741378,-2.659697 0.04634,-0.154454 0.09576,-0.172988 0.432471,-0.172988 0.352155,0 0.457183,0.03089 0.503519,0.151364 0.0278,0.07105 0.148276,0.512787 0.577658,2.116019 0.05869,0.219325 0.114296,0.407759 0.123563,0.417026 0.04634,0.04634 0.08032,-0.0834 0.457184,-1.631034 0.126652,-0.518965 0.250215,-0.957614 0.274928,-0.985416 0.05251,-0.05251 0.599281,-0.09267 0.747557,-0.0556 0.126652,0.03089 0.148276,0.142098 0.08032,0.413936 -0.250215,1.019396 -0.716666,2.65043 -0.815517,2.845042 -0.06487,0.126652 -0.213146,0.16681 -0.67033,0.176077 -0.228592,0.0031 -0.466451,0 -0.525143,-0.0093 z"
           id="path15-5"
           style="fill:#3b7bbc;stroke-width:0.0617816" />
        <path
           d="m 27.47534,21.958951 c -0.03398,-0.0093 -0.08649,-0.03707 -0.114296,-0.06487 -0.05251,-0.04325 -0.0556,-0.154454 -0.0556,-1.485846 0,-1.078089 0.0093,-1.458045 0.04016,-1.516738 0.05251,-0.105029 0.383046,-0.265661 0.676508,-0.324353 0.145187,-0.0278 0.40467,-0.04634 0.664152,-0.04634 0.580747,0 0.574569,-0.0031 0.559124,0.417025 -0.0062,0.20079 -0.02471,0.333621 -0.05251,0.364511 -0.03398,0.04325 -0.101939,0.04943 -0.417025,0.04325 -0.429382,-0.0062 -0.522055,0.02471 -0.556034,0.197701 -0.0093,0.05251 -0.01853,0.586924 -0.01853,1.186206 0,1.319036 0.0278,1.232542 -0.392313,1.241809 -0.148276,0.0031 -0.299641,-0.0031 -0.33362,-0.01236 z"
           id="path16-2"
           style="fill:#3b7bbc;stroke-width:0.0617816" />
        <path
           d="m 34.314559,21.983664 c -0.293462,-0.0556 -0.46954,-0.191523 -0.590014,-0.451006 -0.06796,-0.148276 -0.07105,-0.191523 -0.08649,-1.17385 l -0.01544,-1.019396 -0.26875,-0.01544 c -0.145187,-0.0093 -0.271839,-0.02162 -0.281106,-0.03089 -0.0062,-0.0093 -0.02162,-0.154454 -0.03398,-0.327442 -0.02471,-0.407758 -0.01544,-0.423204 0.308908,-0.432471 l 0.244037,-0.0062 0.01544,-0.420115 c 0.01853,-0.543678 0.0031,-0.528232 0.491164,-0.528232 0.262572,0 0.376867,0.01236 0.413936,0.04325 0.04325,0.03398 0.05251,0.108118 0.05251,0.447916 0,0.222414 0.01236,0.420115 0.02471,0.441738 0.01545,0.0278 0.157543,0.04016 0.454095,0.04634 l 0.432471,0.0093 v 0.355244 0.355244 l -0.454095,0.0093 -0.457183,0.0093 v 0.778448 c 0,0.438649 0.01544,0.827873 0.03089,0.892744 0.04942,0.172988 0.157543,0.240948 0.383045,0.240948 0.10194,-0.0031 0.247127,-0.01236 0.315086,-0.0278 0.210058,-0.04016 0.228592,-0.01545 0.228592,0.333621 0,0.228591 -0.01236,0.315086 -0.04325,0.342887 -0.126652,0.10194 -0.852586,0.182256 -1.164583,0.126653 z"
           id="path18-6"
           style="fill:#3a4d52;stroke-width:0.0617816" />
        <path
           d="m 36.955721,21.968218 c -0.552945,-0.126652 -0.914367,-0.491163 -1.053375,-1.059554 -0.06487,-0.274928 -0.06487,-0.957614 0,-1.269611 0.05869,-0.271839 0.206968,-0.552945 0.383045,-0.73829 0.157543,-0.160632 0.500431,-0.33362 0.766092,-0.383045 0.278017,-0.05251 0.911278,-0.01853 1.158404,0.06178 0.707399,0.225503 1.065732,0.963793 0.963793,1.983188 -0.05869,0.586925 -0.213147,0.911279 -0.562212,1.17385 -0.253305,0.188434 -0.491164,0.250216 -1.019396,0.262572 -0.30273,0.0062 -0.509698,-0.0031 -0.636351,-0.03089 z m 0.892744,-0.80316 c 0.244037,-0.10194 0.33671,-0.308908 0.355244,-0.790804 0.02471,-0.611638 -0.08649,-0.898922 -0.383046,-1.000862 -0.293462,-0.09885 -0.630172,-0.04634 -0.80316,0.126652 -0.188434,0.188434 -0.274928,0.701221 -0.185345,1.118247 0.09267,0.432471 0.271839,0.586925 0.691954,0.590014 0.123563,0 0.26875,-0.01853 0.324353,-0.04325 z"
           id="path19-1"
           style="fill:#3a4d52;stroke-width:0.0617816" />
        <path
           d="m 40.665705,21.952773 c -0.30273,-0.07414 -0.488075,-0.176078 -0.667241,-0.364511 -0.284195,-0.299641 -0.398491,-0.676509 -0.398491,-1.315948 0,-0.954525 0.278017,-1.454956 0.945258,-1.692815 0.253304,-0.08958 0.954525,-0.117385 1.251077,-0.04634 0.577657,0.13283 0.90201,0.454094 1.068821,1.041019 0.07723,0.274928 0.07723,1.099712 0,1.383908 -0.114296,0.426292 -0.355244,0.7352 -0.685776,0.886565 -0.361422,0.16681 -1.074999,0.216236 -1.513648,0.108118 z m 0.886565,-0.775359 c 0.281106,-0.08032 0.407759,-0.364511 0.40467,-0.911278 0,-0.695043 -0.185345,-0.942169 -0.695043,-0.942169 -0.454095,0 -0.642528,0.203879 -0.70431,0.750646 -0.06178,0.546767 0.06796,0.945258 0.352155,1.074999 0.142098,0.06487 0.457184,0.07723 0.642528,0.0278 z"
           id="path20-4"
           style="fill:#3a4d52;stroke-width:0.0617816" />
        <path
           d="m 44.187254,21.977485 c -0.240948,-0.02471 -0.379956,-0.08649 -0.50043,-0.222413 -0.210058,-0.237859 -0.206969,-0.216236 -0.219325,-2.461996 -0.0031,-1.112068 -0.0031,-2.051148 0.0062,-2.088217 0.02471,-0.09885 0.151365,-0.135919 0.478807,-0.135919 0.259483,0 0.315086,0.0093 0.386135,0.06487 l 0.08032,0.06178 v 1.90905 1.909051 l 0.06796,0.08649 c 0.06487,0.08341 0.07105,0.08649 0.324353,0.06796 0.318175,-0.01853 0.324353,-0.01236 0.311997,0.40158 l -0.0093,0.30273 -0.123563,0.04016 c -0.166811,0.0556 -0.574569,0.08649 -0.803161,0.06487 z"
           id="path21-2"
           style="fill:#3a4d52;stroke-width:0.0617816" />
      </g>
      <g
         id="g85"
         transform="matrix(0.06178157,0,0,0.06178157,-7.570256,-2.4849272)">
        <path
           d="m 249.15,432.2 c -3.45,-1.7 -4.95,-7.2 -2.8,-10.1 1.4,-1.9 24.95,-24.45 27.35,-26.2 5.4,-3.9 12.8,0.75 11.35,7.1 -0.3,1.45 -3,4.35 -14,15.25 -7.5,7.45 -14.1,13.75 -14.7,14.1 -1.55,0.85 -5.3,0.75 -7.2,-0.15 z"
           id="path8-4"
           style="fill:#3b7bbc" />
        <path
           d="m 343,429.75 c -1.1,-0.45 -8.45,-7.55 -19.75,-18.95 l -18,-18.2 -4.5,-0.25 C 295.1,392 291,390.65 286.2,387.4 c -6,-4 -9.7,-8.95 -11.8,-15.65 -3.25,-10.45 0.95,-22.9 9.8,-29 l 2.85,-1.95 -17.7,-17.75 c -9.75,-9.8 -18,-18.3 -18.3,-18.9 -2.2,-4.35 1.85,-9.15 7.8,-9.15 l 2.4,-0.05 20.7,20.9 c 27.1,27.35 32.6,33.05 36.9,38.15 1.95,2.35 4.6,4.9 5.9,5.7 2.95,1.9 3.75,3.45 3.75,7.45 0,5.95 -2.1,10.65 -7.05,15.9 l -3,3.2 16.45,16.25 c 9.05,8.95 16.85,17 17.35,17.95 1.45,2.9 0.35,6.95 -2.4,8.75 -1.75,1.15 -4.85,1.4 -6.85,0.55 z M 306.8,376.1 c 2.35,-1.2 5,-4.05 6,-6.4 1.05,-2.5 0.9,-8 -0.3,-10.45 -4.7,-9.7 -17.7,-10.45 -22.7,-1.25 -3.65,6.7 -1.1,14.8 5.85,18.25 2.2,1.05 3.1,1.25 5.85,1.1 2,-0.15 4.05,-0.6 5.3,-1.25 z"
           id="path9-5"
           style="fill:#3b7bbc" />
        <path
           d="m 232.05,414.1 c -2.55,-1.25 -3.7,-3.15 -3.95,-6.35 l -0.25,-2.8 14.4,-14.25 c 8.1,-8 14.9,-14.35 15.6,-14.5 2,-0.5 5.45,0.1 7.05,1.25 1.95,1.35 3.3,4.7 2.85,7 -0.3,1.5 -2.6,4 -14.15,15.4 -7.65,7.5 -14.55,14 -15.45,14.4 -2.05,1 -4,0.95 -6.1,-0.15 z"
           id="path11-1"
           style="fill:#3b7bbc" />
        <path
           d="m 337.25,354.45 c -3.75,-2.2 -5.35,-5.75 -3.95,-8.75 1.2,-2.45 21.4,-22.1 24,-23.25 1.95,-0.9 2.25,-0.9 4.25,-0.2 2.75,1 4.3,2.45 4.95,4.65 0.95,3.55 0.55,4.15 -11.5,16.3 l -11.35,11.45 -2.7,0.2 c -1.5,0.1 -3.15,-0.1 -3.7,-0.4 z"
           id="path17-7"
           style="fill:#3b7bbc" />
        <path
           d="M 346.9,402.1 334,389.25 v -2.2 c 0,-2.8 1.65,-5.05 4.75,-6.55 4.25,-2.05 4.5,-1.9 17.65,11.15 6.45,6.4 12,12.2 12.4,12.95 2.4,4.6 -1.35,10.4 -6.75,10.4 h -2.25 z"
           id="path26-1"
           style="fill:#85c456" />
        <path
           d="m 260.5,347.55 c -0.95,-0.55 -7.2,-6.45 -13.85,-13.15 -10.15,-10.2 -12.1,-12.45 -12.4,-14 -0.95,-5.15 5.9,-10.3 10.2,-7.6 0.8,0.55 6.85,6.25 13.45,12.75 13.65,13.45 14.1,14.05 12.15,18.05 -2,4.2 -6.1,5.85 -9.55,3.95 z"
           id="path27-6"
           style="fill:#85c456" />
        <path
           d="m 318.15,337.1 c -2.2,-2 -3,-4.35 -2.4,-7 0.45,-2.15 22.3,-23.7 24.85,-24.55 5.2,-1.7 10.05,3.25 8.65,8.8 -0.35,1.55 -21.05,22.75 -23.35,23.95 -0.75,0.4 -2.35,0.7 -3.55,0.7 -1.85,0 -2.5,-0.3 -4.2,-1.9 z"
           id="path28"
           style="fill:#85c456" />
      </g>
    </g>
  </g>
</svg>
