<?xml version="1.0" encoding="UTF-8"?>
<svg width="180" height="40" viewBox="0 0 180 40" fill="none" xmlns="http://www.w3.org/2000/svg">
    <!-- Tool icon -->
    <path d="M20 8C14.477 8 10 12.477 10 18C10 23.523 14.477 28 20 28C25.523 28 30 23.523 30 18C30 12.477 25.523 8 20 8ZM24.5 19H21.414L23.707 21.293C24.098 21.684 24.098 22.316 23.707 22.707C23.512 22.902 23.256 23 23 23C22.744 23 22.488 22.902 22.293 22.707L20 20.414L17.707 22.707C17.512 22.902 17.256 23 17 23C16.744 23 16.488 22.902 16.293 22.707C15.902 22.316 15.902 21.684 16.293 21.293L18.586 19H15.5C14.948 19 14.5 18.552 14.5 18C14.5 17.448 14.948 17 15.5 17H18.586L16.293 14.707C15.902 14.316 15.902 13.684 16.293 13.293C16.684 12.902 17.316 12.902 17.707 13.293L20 15.586L22.293 13.293C22.684 12.902 23.316 12.902 23.707 13.293C24.098 13.684 24.098 14.316 23.707 14.707L21.414 17H24.5C25.052 17 25.5 17.448 25.5 18C25.5 18.552 25.052 19 24.5 19Z" fill="#4361EE"/>
    
    <!-- Text "Everytool" -->
    <path d="M45 26V12H65V15H49V17.5H63V20.5H49V23H65V26H45Z" fill="#4361EE"/>
    <path d="M67 26V12H71V23H85V26H67Z" fill="#4361EE"/>
    <path d="M87 26V12H91V26H87Z" fill="#4361EE"/>
    <path d="M94 26V12H98V23H112V26H94Z" fill="#4361EE"/>
    <path d="M115 26V12H135V15H119V17.5H133V20.5H119V26H115Z" fill="#4361EE"/>
    <path d="M137 26V12H141V26H137Z" fill="#4361EE"/>
    <path d="M144 26V12H148V23H162V26H144Z" fill="#4361EE"/>
    <path d="M165 26V12H169L180 21V12H184V26H180L169 17V26H165Z" fill="#4361EE"/>
</svg> 